<?xml version="1.0" standalone="no"?>
<!DOCTYPE svg PUBLIC "-//W3C//DTD SVG 20010904//EN"
 "http://www.w3.org/TR/2001/REC-SVG-20010904/DTD/svg10.dtd">
<svg version="1.0" xmlns="http://www.w3.org/2000/svg"
 width="160.000000pt" height="40.000000pt" viewBox="0 0 160.000000 40.000000"
 preserveAspectRatio="xMidYMid meet">
<metadata>
Created by potrace 1.13, written by Peter Selinger 2001-2015
</metadata>
<g transform="translate(0.000000,40.000000) scale(0.100000,-0.100000)"
fill="#000000" stroke="none">
<path d="M86 328 c-9 -12 -16 -35 -16 -50 0 -18 -5 -28 -15 -28 -9 0 -15 -9
-15 -25 0 -16 6 -25 15 -25 12 0 15 -15 15 -75 l0 -75 30 0 30 0 0 75 c0 67 2
75 19 75 17 0 31 18 31 41 0 5 -12 9 -26 9 -21 0 -25 4 -22 23 2 14 11 23 26
25 16 3 22 10 22 28 0 21 -4 24 -39 24 -30 0 -44 -6 -55 -22z"/>
<path d="M730 201 c0 -154 -2 -151 70 -151 81 0 104 27 105 122 0 61 -21 83
-75 82 l-40 -1 0 43 c0 42 -1 44 -30 44 l-30 0 0 -139z"/>
<path d="M1314 327 c-2 -7 -3 -71 -2 -143 l3 -129 30 0 c27 0 30 3 35 39 l5
39 23 -42 c19 -33 29 -41 53 -41 36 0 36 10 4 58 -14 20 -25 41 -25 47 0 6 11
27 25 47 14 20 25 39 25 42 0 4 -13 6 -30 6 -23 0 -35 -8 -55 -37 l-25 -38 0
83 0 82 -30 0 c-17 0 -33 -6 -36 -13z"/>
<path d="M404 248 c-58 -28 -60 -154 -3 -183 53 -28 109 -17 109 22 0 22 -3
23 -33 18 -42 -8 -60 11 -55 57 3 31 5 33 46 36 36 3 42 6 42 26 0 34 -59 47
-106 24z"/>
<path d="M578 249 c-32 -12 -42 -36 -41 -102 1 -75 47 -108 129 -93 28 6 34
11 34 32 0 23 -2 24 -40 18 -26 -4 -45 -2 -55 6 -24 20 -7 30 51 30 49 0 54 2
54 23 0 43 -13 68 -41 82 -32 17 -52 18 -91 4z"/>
<path d="M974 249 c-48 -14 -69 -87 -45 -152 20 -51 123 -61 156 -14 17 24 20
108 5 137 -5 10 -24 23 -41 29 -36 12 -33 12 -75 0z"/>
<path d="M1164 246 c-37 -16 -44 -32 -44 -95 0 -58 20 -88 65 -97 71 -13 115
27 115 106 0 72 -69 115 -136 86z"/>
<path d="M200 225 c0 -22 4 -25 40 -25 29 0 40 -4 40 -15 0 -10 -11 -15 -35
-15 -63 0 -96 -59 -56 -99 14 -14 33 -18 85 -18 l66 0 0 82 c0 100 -11 115
-88 115 -49 0 -52 -2 -52 -25z"/>
</g>
</svg>
